<svg width="47" height="64" viewBox="0 0 47 64" fill="none" xmlns="http://www.w3.org/2000/svg">
<g clip-path="url(#clip0_632_658)">
<path fill-rule="evenodd" clip-rule="evenodd" d="M46.7487 31.9382C46.7718 27.8756 44.783 23.8849 41.1046 21.4961L9.96829 1.2755C7.08763 -0.595266 3.22538 0.207467 1.34175 3.06847C-0.541891 5.92945 0.266371 9.76531 3.14705 11.6361L34.4087 31.9382L12.714 46.0273V39.8313C12.714 36.4126 9.92365 33.6415 6.48163 33.6415C3.0396 33.6415 0.249268 36.4126 0.249268 39.8313V57.5171C0.249268 60.9355 3.0396 63.7069 6.48163 63.7069C7.99473 63.7069 9.38191 63.1711 10.4615 62.2807L41.1046 42.3802C44.783 39.9913 46.7718 36.0007 46.7487 31.9382Z" fill="#FF00F5"/>
<path fill-rule="evenodd" clip-rule="evenodd" d="M46.7487 31.9382C46.7718 27.8756 44.783 23.8849 41.1046 21.4961L9.96829 1.2755C7.08763 -0.595266 3.22538 0.207467 1.34175 3.06847C-0.541891 5.92945 0.266371 9.76531 3.14705 11.6361L34.4087 31.9382L12.714 46.0273V39.8313C12.714 36.4126 9.92365 33.6415 6.48163 33.6415C3.0396 33.6415 0.249268 36.4126 0.249268 39.8313V57.5171C0.249268 60.9355 3.0396 63.7069 6.48163 63.7069C7.99473 63.7069 9.38191 63.1711 10.4615 62.2807L41.1046 42.3802C44.783 39.9913 46.7718 36.0007 46.7487 31.9382Z" fill="url(#paint0_linear_632_658)"/>
<path fill-rule="evenodd" clip-rule="evenodd" d="M46.7487 31.9382C46.7718 27.8756 44.783 23.8849 41.1046 21.4961L9.96829 1.2755C7.08763 -0.595266 3.22538 0.207467 1.34175 3.06847C-0.541891 5.92945 0.266371 9.76531 3.14705 11.6361L34.4087 31.9382L12.714 46.0273V39.8313C12.714 36.4126 9.92365 33.6415 6.48163 33.6415C3.0396 33.6415 0.249268 36.4126 0.249268 39.8313V57.5171C0.249268 60.9355 3.0396 63.7069 6.48163 63.7069C7.99473 63.7069 9.38191 63.1711 10.4615 62.2807L41.1046 42.3802C44.783 39.9913 46.7718 36.0007 46.7487 31.9382Z" fill="url(#paint1_linear_632_658)"/>
<path d="M6.52172 31.0074C9.91066 31.0074 12.6579 28.2789 12.6579 24.9131C12.6579 21.5474 9.91066 18.8188 6.52172 18.8188C3.13278 18.8188 0.385498 21.5474 0.385498 24.9131C0.385498 28.2789 3.13278 31.0074 6.52172 31.0074Z" fill="white"/>
<path fill-rule="evenodd" clip-rule="evenodd" d="M6.48163 33.6411C9.92365 33.6411 12.714 36.4122 12.714 39.8309V56.352C12.8479 58.0013 13.3454 59.5485 15.0755 59.3028C14.2535 59.8253 13.4755 60.3776 12.7284 60.9081C10.5489 62.4552 8.63225 63.8159 6.651 63.7064L6.65254 63.7041C6.59576 63.7056 6.5388 63.7064 6.48163 63.7064C3.0396 63.7064 0.249268 60.9351 0.249268 57.5166V39.8309C0.249268 36.4122 3.0396 33.6411 6.48163 33.6411Z" fill="#FF00F5"/>
<path fill-rule="evenodd" clip-rule="evenodd" d="M6.48163 33.6411C9.92365 33.6411 12.714 36.4122 12.714 39.8309V56.352C12.8479 58.0013 13.3454 59.5485 15.0755 59.3028C14.2535 59.8253 13.4755 60.3776 12.7284 60.9081C10.5489 62.4552 8.63225 63.8159 6.651 63.7064L6.65254 63.7041C6.59576 63.7056 6.5388 63.7064 6.48163 63.7064C3.0396 63.7064 0.249268 60.9351 0.249268 57.5166V39.8309C0.249268 36.4122 3.0396 33.6411 6.48163 33.6411Z" fill="url(#paint2_linear_632_658)"/>
</g>
<defs>
<linearGradient id="paint0_linear_632_658" x1="-14.0686" y1="-5.76097" x2="51.1337" y2="-24.4271" gradientUnits="userSpaceOnUse">
<stop stop-color="#FF9900"/>
<stop offset="1" stop-color="#FF5C00" stop-opacity="0"/>
</linearGradient>
<linearGradient id="paint1_linear_632_658" x1="3.20126" y1="64.7121" x2="3.90888" y2="13.3403" gradientUnits="userSpaceOnUse">
<stop stop-color="#0500FF"/>
<stop offset="1" stop-color="#0500FF" stop-opacity="0"/>
</linearGradient>
<linearGradient id="paint2_linear_632_658" x1="7.66242" y1="33.6411" x2="7.66242" y2="63.7126" gradientUnits="userSpaceOnUse">
<stop stop-color="#5916D0"/>
<stop offset="1" stop-color="#5916D0" stop-opacity="0"/>
</linearGradient>
<clipPath id="clip0_632_658">
<rect width="47" height="64" fill="white"/>
</clipPath>
</defs>
</svg>
